<mxfile host="app.diagrams.net" modified="2023-04-16T08:22:52.952Z" agent="Mozilla/5.0 (Windows NT 10.0; Win64; x64) AppleWebKit/537.36 (KHTML, like Gecko) Chrome/112.0.0.0 Safari/537.36" etag="hXhuFb-zf4rU39wu-kJv" version="21.1.7" type="github">
  <diagram name="페이지-1" id="UiiDNWAqFwjKF0HyPbsK">
    <mxGraphModel dx="908" dy="662" grid="1" gridSize="10" guides="1" tooltips="1" connect="1" arrows="1" fold="1" page="1" pageScale="1" pageWidth="827" pageHeight="1169" math="0" shadow="0">
      <root>
        <mxCell id="0" />
        <mxCell id="1" parent="0" />
        <mxCell id="qTMEEash9hVdEmzpQc22-1" value="" style="rounded=0;whiteSpace=wrap;html=1;fillColor=#f5f5f5;fontColor=#333333;strokeColor=#666666;" vertex="1" parent="1">
          <mxGeometry x="160" y="120" width="410" height="290" as="geometry" />
        </mxCell>
        <mxCell id="qTMEEash9hVdEmzpQc22-2" value="View layer" style="rounded=0;whiteSpace=wrap;html=1;" vertex="1" parent="1">
          <mxGeometry x="180" y="160" width="370" height="40" as="geometry" />
        </mxCell>
        <mxCell id="qTMEEash9hVdEmzpQc22-3" value="Control layer" style="rounded=0;whiteSpace=wrap;html=1;" vertex="1" parent="1">
          <mxGeometry x="180" y="210" width="370" height="70" as="geometry" />
        </mxCell>
        <mxCell id="qTMEEash9hVdEmzpQc22-4" value="Model layer" style="rounded=0;whiteSpace=wrap;html=1;" vertex="1" parent="1">
          <mxGeometry x="180" y="290" width="180" height="90" as="geometry" />
        </mxCell>
        <mxCell id="qTMEEash9hVdEmzpQc22-5" value="Hardware abstract layer" style="rounded=0;whiteSpace=wrap;html=1;" vertex="1" parent="1">
          <mxGeometry x="370" y="290" width="180" height="40" as="geometry" />
        </mxCell>
        <mxCell id="qTMEEash9hVdEmzpQc22-6" value="Hardware adapter layer" style="rounded=0;whiteSpace=wrap;html=1;" vertex="1" parent="1">
          <mxGeometry x="370" y="340" width="180" height="40" as="geometry" />
        </mxCell>
        <mxCell id="qTMEEash9hVdEmzpQc22-8" value="&amp;lt;&amp;lt;Anomaly Management System&amp;gt;&amp;gt;" style="text;html=1;strokeColor=none;fillColor=none;align=center;verticalAlign=middle;whiteSpace=wrap;rounded=0;" vertex="1" parent="1">
          <mxGeometry x="240" y="120" width="250" height="30" as="geometry" />
        </mxCell>
      </root>
    </mxGraphModel>
  </diagram>
</mxfile>
